HIERARCHY
ROOT Hips
{
	OFFSET 0.00000 0.00000 0.00000
	CHANNELS 6 Xposition Yposition Zposition Zrotation Yrotation Xrotation 
	JOINT LHipJoint
	{
		OFFSET 0 0 0
		CHANNELS 3 Zrotation Yrotation Xrotation
		JOINT LeftUpLeg
		{
			OFFSET 1.33213 -1.58186 0.78596
			CHANNELS 3 Zrotation Yrotation Xrotation
			JOINT LeftLeg
			{
				OFFSET 2.29717 -6.31144 0.00000
				CHANNELS 3 Zrotation Yrotation Xrotation
				JOINT LeftFoot
				{
					OFFSET 2.38430 -6.55082 0.00000
					CHANNELS 3 Zrotation Yrotation Xrotation
					JOINT LeftToeBase
					{
						OFFSET 0.11863 -0.32594 1.77568
						CHANNELS 3 Zrotation Yrotation Xrotation
						End Site
						{
							OFFSET 0.00000 -0.00000 0.91633
						}
					}
				}
			}
		}
	}
	JOINT RHipJoint
	{
		OFFSET 0 0 0
		CHANNELS 3 Zrotation Yrotation Xrotation
		JOINT RightUpLeg
		{
			OFFSET -1.41575 -1.58186 0.78596
			CHANNELS 3 Zrotation Yrotation Xrotation
			JOINT RightLeg
			{
				OFFSET -2.42012 -6.64922 0.00000
				CHANNELS 3 Zrotation Yrotation Xrotation
				JOINT RightFoot
				{
					OFFSET -2.47254 -6.79327 0.00000
					CHANNELS 3 Zrotation Yrotation Xrotation
					JOINT RightToeBase
					{
						OFFSET -0.15219 -0.41813 1.93430
						CHANNELS 3 Zrotation Yrotation Xrotation
						End Site
						{
							OFFSET -0.00000 -0.00000 0.99984
						}
					}
				}
			}
		}
	}
	JOINT LowerBack
	{
		OFFSET 0 0 0
		CHANNELS 3 Zrotation Yrotation Xrotation
		JOINT Spine
		{
			OFFSET -0.04717 2.09389 -0.14516
			CHANNELS 3 Zrotation Yrotation Xrotation
			JOINT Spine1
			{
				OFFSET 0.02825 2.09433 -0.11325
				CHANNELS 3 Zrotation Yrotation Xrotation
				JOINT Neck
				{
					OFFSET 0 0 0
					CHANNELS 3 Zrotation Yrotation Xrotation
					JOINT Neck1
					{
						OFFSET -0.01210 1.39029 0.12448
						CHANNELS 3 Zrotation Yrotation Xrotation
						JOINT Head
						{
							OFFSET 0.09492 1.38365 0.14559
							CHANNELS 3 Zrotation Yrotation Xrotation
							End Site
							{
								OFFSET 0.03402 1.40343 0.03708
							}
						}
					}
				}
				JOINT LeftShoulder
				{
					OFFSET 0 0 0
					CHANNELS 3 Zrotation Yrotation Xrotation
					JOINT LeftArm
					{
						OFFSET 2.83352 1.10671 -0.20481
						CHANNELS 3 Zrotation Yrotation Xrotation
						JOINT LeftForeArm
						{
							OFFSET 4.77195 -0.00000 -0.00000
							CHANNELS 3 Zrotation Yrotation Xrotation
							JOINT LeftHand
							{
								OFFSET 2.98444 -0.00000 0.00000
								CHANNELS 3 Zrotation Yrotation Xrotation
								JOINT LeftFingerBase
								{
									OFFSET 0 0 0
									CHANNELS 3 Zrotation Yrotation Xrotation
									JOINT LeftHandIndex1
									{
										OFFSET 0.99228 -0.00000 0.00000
										CHANNELS 3 Zrotation Yrotation Xrotation
										End Site
										{
											OFFSET 0.80001 -0.00000 0.00000
										}
									}
								}
								JOINT LThumb
								{
									OFFSET 0 0 0
									CHANNELS 3 Zrotation Yrotation Xrotation
									End Site
									{
										OFFSET 0.81222 -0.00000 0.81222
									}
								}
							}
						}
					}
				}
				JOINT RightShoulder
				{
					OFFSET 0 0 0
					CHANNELS 3 Zrotation Yrotation Xrotation
					JOINT RightArm
					{
						OFFSET -3.23760 1.11106 0.06723
						CHANNELS 3 Zrotation Yrotation Xrotation
						JOINT RightForeArm
						{
							OFFSET -4.62052 -0.00000 0.00000
							CHANNELS 3 Zrotation Yrotation Xrotation
							JOINT RightHand
							{
								OFFSET -2.95332 -0.00000 0.00000
								CHANNELS 3 Zrotation Yrotation Xrotation
								JOINT RightFingerBase
								{
									OFFSET 0 0 0
									CHANNELS 3 Zrotation Yrotation Xrotation
									JOINT RightHandIndex1
									{
										OFFSET -0.99096 -0.00000 0.00000
										CHANNELS 3 Zrotation Yrotation Xrotation
										End Site
										{
											OFFSET -0.79893 -0.00000 0.00000
										}
									}
								}
								JOINT RThumb
								{
									OFFSET 0 0 0
									CHANNELS 3 Zrotation Yrotation Xrotation
									End Site
									{
										OFFSET -0.81113 -0.00000 0.81113
									}
								}
							}
						}
					}
				}
			}
		}
	}
}
MOTION
Frames: 15
Frame Time: .0083333
-3.5831 15.5188 48.8397 0 0 0 0 0 0 -21 0 0 0 0 0 0 0 0 0 0 0 0 0 0 21 0 0 0 0 0 0 0 0 0 0 0 0 0 0 0 0 0 0 0 0 0 0 -16 0 0 21 0 0 11 0 0 0 -8 0 0 0 0 0 0 0 0 0 0 0 0 0 0 0 0 0 0 0 0 8 0 0 0 0 0 0 0 0 0 0 0 0 0 0 0 0 0
-3.5831 15.5188 48.8397 -178.4980 -10.2713 -171.5680 0.0000 0.0000 0.0000 -18.4302 -6.0493 -4.8131 1.5928 7.9608 22.5950 -0.2821 -19.6724 -11.3276 0.6713 5.2393 14.5923 0.0000 0.0000 0.0000 13.5031 10.2313 -36.1031 -4.1773 -12.3927 37.1358 -0.7003 10.7233 -15.6524 -0.6742 -5.2503 14.6238 -1.6486 -2.2068 -7.1783 2.0138 -2.9253 1.3499 2.6721 -1.5434 5.6256 -5.9024 -3.7741 2.8699 9.6660 -5.0137 -13.3774 4.1690 -2.9804 -4.0323 0.0000 -0.0000 0.0000 -92.7486 -6.9643 8.6787 11.9670 -19.7552 -2.0911 -0.0000 -0.0000 9.3731 -15.1317 19.2727 -5.1004 -7.1250 0.0000 -0.0000 -39.4049 45.2984 -0.3461 0.0000 -0.0000 0.0000 91.0464 -2.9422 -3.2273 -13.0474 21.3567 -2.4705 0.0000 0.0000 34.5152 -0.4048 -8.6631 0.0610 7.1250 -0.0000 -0.0000 22.3692 -37.6925 4.2858
-3.5886 15.5156 48.8529 -178.3260 -10.4466 -171.6750 0.0000 0.0000 0.0000 -18.2644 -6.2704 -4.8522 1.6251 8.0372 22.8270 -0.2856 -19.6517 -11.2766 0.1189 2.2232 6.1230 0.0000 0.0000 0.0000 13.6793 10.1526 -36.0461 -4.1683 -12.3810 37.0936 -0.6756 10.3533 -15.3259 -0.4645 -4.3716 12.1246 -1.4765 -2.2582 -7.0628 2.1055 -3.0188 1.3370 2.6638 -1.5865 5.5483 -6.1619 -3.7738 2.8663 9.8362 -5.0091 -13.2654 4.2605 -2.9705 -3.9854 -0.0000 -0.0000 0.0000 -92.9029 -6.8781 9.7918 12.2830 -20.2276 -2.1991 -0.0000 -0.0000 8.7128 -15.0027 18.7161 -4.9151 -7.1250 0.0000 -0.0000 -38.9791 44.8620 0.1581 -0.0000 -0.0000 0.0000 90.9370 -2.8660 -2.7684 -13.1117 21.4506 -2.4940 0.0000 0.0000 34.1563 -0.6849 -7.9886 0.0952 7.1250 -0.0000 -0.0000 21.9493 -37.0882 4.5433
-3.5937 15.5113 48.8637 -178.3030 -10.4833 -171.7540 0.0000 0.0000 0.0000 -18.2750 -6.3446 -4.7921 1.6300 8.0488 22.8623 -0.2884 -19.6152 -11.2184 0.1357 2.3743 6.5412 0.0000 0.0000 0.0000 13.7202 10.0382 -36.0709 -4.1795 -12.3955 37.1459 -0.6454 10.0462 -14.9584 -0.2707 -3.3465 9.2450 -1.4956 -2.2900 -6.9684 2.1779 -3.0661 1.3410 2.7477 -1.6126 5.5070 -6.3698 -3.7655 2.8411 9.9515 -4.9950 -13.1412 4.3254 -2.9546 -3.9353 0.0000 -0.0000 0.0000 -93.0636 -6.8715 10.7941 12.6137 -20.7186 -2.3148 -0.0000 -0.0000 7.6830 -15.1440 18.6547 -4.9477 -7.1250 0.0000 -0.0000 -39.0537 44.7932 0.2375 0.0000 -0.0000 0.0000 90.7960 -2.7973 -2.1377 -13.1991 21.5783 -2.5261 0.0000 0.0000 33.6855 -1.0967 -7.3874 0.1410 7.1250 -0.0000 -0.0000 21.4524 -36.5578 4.7255
-3.6002 15.5072 48.8728 -178.4700 -10.4198 -171.7910 0.0000 0.0000 0.0000 -18.5213 -6.4283 -4.7166 1.6379 8.0671 22.9181 -0.2765 -19.5863 -11.3070 0.1602 2.5788 7.1083 0.0000 0.0000 0.0000 13.5742 9.8567 -36.1172 -4.1836 -12.4008 37.1649 -0.5990 9.8124 -14.4406 -0.1352 -2.3699 6.5291 -1.7064 -2.3000 -6.9041 2.1856 -3.0607 1.3431 2.8773 -1.6164 5.4845 -6.3739 -3.7591 2.9223 9.9084 -4.9898 -13.1653 4.3156 -2.9496 -3.9580 0.0000 0.0000 0.0000 -93.2053 -6.8887 11.6089 12.9655 -21.2366 -2.4408 -0.0000 -0.0000 6.4580 -15.4658 19.1511 -5.1864 -7.1250 0.0000 -0.0000 -39.5939 45.1546 -0.1807 0.0000 0.0000 0.0000 90.6935 -2.8072 -1.4910 -13.3579 21.8094 -2.5848 0.0000 0.0000 33.4304 -1.3167 -6.8193 0.1564 7.1250 -0.0000 -0.0000 21.1244 -36.0428 4.9284
-3.6079 15.5066 48.8813 -178.6300 -10.3558 -171.7730 0.0000 0.0000 0.0000 -18.7566 -6.5106 -4.7056 1.6439 8.0812 22.9609 -0.2595 -19.5505 -11.4374 0.1538 2.5267 6.9638 0.0000 0.0000 0.0000 13.3787 9.8191 -36.1527 -4.1816 -12.3983 37.1559 -0.5502 9.5478 -13.8729 -0.0553 -1.5169 4.1722 -1.9112 -2.3118 -6.9737 2.1918 -3.0576 1.3888 2.9960 -1.6227 5.5835 -6.3517 -3.7422 2.9510 9.8440 -4.9731 -13.2442 4.2948 -2.9415 -3.9909 0.0000 -0.0000 0.0000 -93.3537 -7.3694 11.1452 13.1063 -21.4428 -2.4920 -0.0000 -0.0000 5.1260 -16.7441 19.8202 -5.8246 -7.1250 0.0000 -0.0000 -40.9874 45.5211 -0.6381 0.0000 -0.0000 0.0000 90.6078 -2.7180 -1.1345 -13.5132 22.0345 -2.6427 0.0000 0.0000 33.7204 -1.2448 -6.2529 0.1356 7.1250 -0.0000 -0.0000 21.0334 -35.5098 5.1970
-3.6129 15.5084 48.8854 -178.5970 -10.2662 -171.7760 0.0000 0.0000 0.0000 -18.7315 -6.3616 -4.8096 1.6515 8.0990 23.0151 -0.2694 -19.6183 -11.4018 0.1300 2.3238 6.4015 0.0000 0.0000 0.0000 13.3984 9.9548 -36.1304 -4.1712 -12.3848 37.1071 -0.4898 8.9703 -13.0749 -0.0180 0.8668 -2.3823 -1.9868 -2.3370 -7.1421 2.2779 -3.0914 1.4995 3.1164 -1.6482 5.8077 -6.4696 -3.6920 2.7673 9.8579 -4.9110 -13.2181 4.3111 -2.9051 -3.9537 -0.0000 0.0000 0.0000 -93.5606 -8.1703 10.2266 12.8937 -21.1313 -2.4148 -0.0000 -0.0000 4.8620 -17.5884 19.7623 -6.1177 -7.1250 0.0000 -0.0000 -41.6000 45.3579 -0.4482 -0.0000 0.0000 0.0000 90.5028 -2.4177 -0.6749 -13.5392 22.0721 -2.6525 0.0000 0.0000 33.4107 -1.7273 -5.7359 0.1727 7.1250 -0.0000 -0.0000 20.5214 -35.0551 5.2982
-3.6170 15.5101 48.8890 -178.4030 -10.1445 -171.8600 0.0000 0.0000 0.0000 -18.5098 -6.0194 -4.9441 1.6621 8.1236 23.0900 -0.3028 -19.8042 -11.2458 0.1098 2.1370 5.8844 0.0000 0.0000 0.0000 13.6451 10.0311 -36.0551 -4.1527 -12.3609 37.0209 -0.4637 9.0601 -12.8089 -0.0181 0.8698 -2.3907 -1.8706 -2.3245 -7.2153 2.3639 -3.0947 1.5821 3.1366 -1.6515 5.9353 -6.5385 -3.6619 2.6755 9.8805 -4.8715 -13.1741 4.3246 -2.8821 -3.9257 0.0000 -0.0000 0.0000 -93.6577 -8.5095 10.2250 12.9020 -21.1435 -2.4178 -0.0000 -0.0000 4.4561 -18.0311 19.6602 -6.2500 -7.1250 0.0000 -0.0000 -41.8739 45.2148 -0.2720 0.0000 -0.0000 0.0000 90.4808 -2.1318 -0.2838 -13.5022 22.0186 -2.6386 0.0000 0.0000 32.8813 -2.5958 -5.1816 0.2346 7.1250 -0.0000 -0.0000 19.7021 -34.5829 5.3038
-3.6229 15.5109 48.8950 -178.2870 -10.0148 -171.9050 0.0000 0.0000 0.0000 -18.4048 -5.8229 -5.0374 1.6723 8.1472 23.1620 -0.3003 -19.8415 -11.3017 0.0778 1.7994 4.9517 0.0000 0.0000 0.0000 13.7814 10.1056 -36.0106 -4.1340 -12.3366 36.9333 -0.4363 8.9563 -12.4696 -0.0288 1.0959 -3.0128 -1.7739 -2.3011 -7.1829 2.4009 -3.0766 1.5662 3.1246 -1.6402 5.8954 -6.5232 -3.6313 2.7307 9.8611 -4.8287 -13.1191 4.3147 -2.8582 -3.9231 -0.0000 0.0000 0.0000 -93.6767 -8.2954 11.4307 13.0934 -21.4240 -2.4873 -0.0000 -0.0000 4.0549 -17.4792 19.3673 -5.9617 -7.1250 0.0000 -0.0000 -41.2745 45.0562 -0.0698 -0.0000 0.0000 0.0000 90.4792 -1.9995 -0.2508 -13.5067 22.0251 -2.6403 0.0000 0.0000 33.1944 -2.7983 -4.5618 0.2227 7.1250 -0.0000 -0.0000 19.3992 -34.0089 5.5005
-3.6282 15.5126 48.8990 -178.2200 -9.9343 -171.8950 0.0000 0.0000 0.0000 -18.3580 -5.7951 -5.0930 1.6771 8.1584 23.1962 -0.2814 -19.7684 -11.4170 0.0573 1.5440 4.2471 0.0000 0.0000 0.0000 13.8100 10.2589 -35.9843 -4.1226 -12.3218 36.8800 -0.4195 8.7163 -12.2068 -0.0436 1.3475 -3.7054 -1.6797 -2.3107 -7.1883 2.4002 -3.0982 1.5425 3.0682 -1.6472 5.8698 -6.4952 -3.5816 2.6812 9.8644 -4.7565 -12.9929 4.3040 -2.8194 -3.8834 -0.0000 0.0000 0.0000 -93.6961 -8.3575 11.7300 13.0421 -21.3489 -2.4686 -0.0000 -0.0000 4.1281 -17.0810 19.0939 -5.7399 -7.1250 0.0000 -0.0000 -40.8055 44.8905 0.1338 -0.0000 0.0000 0.0000 90.5562 -1.9354 -0.1643 -13.5612 22.1039 -2.6607 0.0000 0.0000 33.4352 -2.4253 -4.5049 0.1906 7.1250 -0.0000 -0.0000 19.6786 -33.9364 5.6250
-3.6332 15.5153 48.8995 -178.1650 -9.8736 -171.9000 0.0000 0.0000 0.0000 -18.3156 -5.7491 -5.0965 1.6731 8.1492 23.1682 -0.2840 -19.7567 -11.3816 0.0636 1.6266 4.4749 0.0000 0.0000 0.0000 13.8385 10.3108 -35.9720 -4.1218 -12.3208 36.8764 -0.3965 8.6965 -11.9296 -0.0405 1.2987 -3.5712 -1.5765 -2.3072 -7.2390 2.3760 -3.1017 1.5625 2.9821 -1.6453 5.9127 -6.4258 -3.5576 2.5850 9.8529 -4.7203 -12.9151 4.2831 -2.8017 -3.8490 0.0000 -0.0000 0.0000 -93.7448 -8.6278 11.4345 12.8447 -21.0592 -2.3972 -0.0000 -0.0000 4.6510 -16.9393 18.8118 -5.6092 -7.1250 0.0000 -0.0000 -40.5291 44.6818 0.3855 0.0000 -0.0000 0.0000 90.7024 -1.8937 0.0282 -13.6082 22.1719 -2.6785 0.0000 0.0000 33.2120 -2.3744 -4.9147 0.2035 7.1250 -0.0000 -0.0000 19.8136 -34.3198 5.4717
-3.6404 15.5153 48.8986 -178.2200 -9.7941 -171.9240 0.0000 0.0000 0.0000 -18.4257 -5.6804 -5.0131 1.6627 8.1251 23.0947 -0.2744 -19.7142 -11.4364 0.0600 1.5810 4.3489 0.0000 0.0000 0.0000 13.7958 10.1888 -35.9896 -4.1272 -12.3278 36.9016 -0.3687 8.7928 -11.6230 -0.0330 1.1730 -3.2250 -1.5982 -2.3094 -7.2680 2.3513 -3.1000 1.5657 2.9677 -1.6445 5.9322 -6.4438 -3.5391 2.6113 9.8581 -4.6951 -12.8899 4.2870 -2.7877 -3.8473 0.0000 -0.0000 0.0000 -93.8248 -8.6656 11.4072 12.8283 -21.0352 -2.3913 -0.0000 -0.0000 4.6607 -17.0036 18.9311 -5.6658 -7.1250 0.0000 -0.0000 -40.6491 44.7696 0.2802 0.0000 -0.0000 0.0000 90.7554 -1.9247 0.3205 -13.6375 22.2141 -2.6895 0.0000 0.0000 32.8674 -2.5908 -5.0739 0.2293 7.1250 -0.0000 -0.0000 19.6807 -34.4812 5.3491
-3.6485 15.5124 48.8982 -178.3990 -9.7393 -171.9570 0.0000 0.0000 0.0000 -18.6886 -5.6669 -4.8558 1.6500 8.0954 23.0042 -0.2472 -19.6177 -11.6097 0.0394 1.2814 3.5233 0.0000 0.0000 0.0000 13.6501 9.9651 -36.0079 -4.1332 -12.3356 36.9298 -0.3689 8.9709 -11.6821 -0.0238 0.9954 -2.7361 -1.7265 -2.3378 -7.2450 2.2965 -3.1200 1.5525 2.9810 -1.6563 5.9106 -6.5543 -3.5294 2.6581 9.9587 -4.6767 -12.7926 4.3341 -2.7752 -3.8214 -0.0000 0.0000 0.0000 -93.8942 -8.6295 11.1223 12.8970 -21.1361 -2.4160 -0.0000 -0.0000 4.2352 -17.4424 19.6619 -6.0347 -7.1250 0.0000 -0.0000 -41.4265 45.2977 -0.3707 -0.0000 0.0000 0.0000 90.7832 -1.9908 0.5993 -13.6809 22.2768 -2.7060 0.0000 0.0000 32.5888 -2.6460 -5.0588 0.2335 7.1250 -0.0000 -0.0000 19.6336 -34.4699 5.3407
-3.6551 15.5118 48.8982 -178.5520 -9.6933 -171.9510 0.0000 0.0000 0.0000 -18.8897 -5.5997 -4.7694 1.6309 8.0507 22.8683 -0.2626 -19.5796 -11.4329 0.0366 1.2343 3.3937 0.0000 0.0000 0.0000 13.5107 9.8269 -36.0676 -4.1425 -12.3476 36.9731 -0.3983 9.2412 -12.1145 -0.0213 0.9415 -2.5878 -1.8598 -2.3688 -7.2850 2.2551 -3.1444 1.5734 3.0077 -1.6720 5.9622 -6.5728 -3.4952 2.6398 9.9916 -4.6292 -12.7815 4.3454 -2.7528 -3.8175 -0.0000 -0.0000 0.0000 -93.9657 -8.7257 10.6900 12.8039 -20.9992 -2.3825 -0.0000 -0.0000 4.3627 -17.6593 20.0471 -6.2281 -7.1250 0.0000 -0.0000 -41.8313 45.5757 -0.7258 -0.0000 -0.0000 0.0000 90.8327 -1.9576 0.6380 -13.7273 22.3435 -2.7236 0.0000 0.0000 32.7859 -2.5282 -5.0412 0.2223 7.1250 -0.0000 -0.0000 19.7223 -34.4470 5.3791
-3.6601 15.5179 48.8995 -178.5100 -9.6488 -171.9030 0.0000 0.0000 0.0000 -18.8473 -5.4917 -4.7960 1.6077 7.9961 22.7021 -0.2998 -19.5261 -11.0320 0.0437 1.3499 3.7121 0.0000 0.0000 0.0000 13.5068 9.9388 -36.1156 -4.1525 -12.3606 37.0197 -0.4114 9.3424 -12.2985 -0.0077 0.5681 -1.5610 -1.8317 -2.3686 -7.3658 2.2666 -3.1475 1.5830 3.0004 -1.6735 6.0177 -6.4231 -3.4479 2.6138 9.8670 -4.5706 -12.8669 4.2826 -2.7277 -3.8516 0.0000 0.0000 0.0000 -93.9932 -8.8046 10.5973 12.5940 -20.6895 -2.3079 -0.0000 -0.0000 4.9987 -17.4678 19.6024 -6.0266 -7.1250 0.0000 -0.0000 -41.4094 45.2464 -0.3068 0.0000 0.0000 0.0000 90.9140 -1.9186 0.5303 -13.7700 22.4050 -2.7398 0.0000 0.0000 33.2008 -2.3228 -5.0580 0.2049 7.1250 -0.0000 -0.0000 19.8879 -34.4519 5.4266
